<svg width="69" height="50" viewBox="0 0 69 50" fill="none" xmlns="http://www.w3.org/2000/svg">
<path d="M40.625 28.125C38.0208 28.125 35.8073 27.2135 33.9844 25.3906C32.1615 23.5677 31.25 21.3542 31.25 18.75C31.25 16.1458 32.1615 13.9323 33.9844 12.1094C35.8073 10.2865 38.0208 9.375 40.625 9.375C43.2292 9.375 45.4427 10.2865 47.2656 12.1094C49.0885 13.9323 50 16.1458 50 18.75C50 21.3542 49.0885 23.5677 47.2656 25.3906C45.4427 27.2135 43.2292 28.125 40.625 28.125ZM18.75 37.5C17.0312 37.5 15.5599 36.888 14.3359 35.6641C13.112 34.4401 12.5 32.9688 12.5 31.25V6.25C12.5 4.53125 13.112 3.0599 14.3359 1.83594C15.5599 0.611979 17.0312 0 18.75 0H62.5C64.2188 0 65.6901 0.611979 66.9141 1.83594C68.138 3.0599 68.75 4.53125 68.75 6.25V31.25C68.75 32.9688 68.138 34.4401 66.9141 35.6641C65.6901 36.888 64.2188 37.5 62.5 37.5H18.75ZM25 31.25H56.25C56.25 29.5312 56.862 28.0599 58.0859 26.8359C59.3099 25.612 60.7812 25 62.5 25V12.5C60.7812 12.5 59.3099 11.888 58.0859 10.6641C56.862 9.4401 56.25 7.96875 56.25 6.25H25C25 7.96875 24.388 9.4401 23.1641 10.6641C21.9401 11.888 20.4688 12.5 18.75 12.5V25C20.4688 25 21.9401 25.612 23.1641 26.8359C24.388 28.0599 25 29.5312 25 31.25ZM59.375 50H6.25C4.53125 50 3.0599 49.388 1.83594 48.1641C0.611979 46.9401 0 45.4688 0 43.75V9.375H6.25V43.75H59.375V50Z" fill="url(#paint0_linear_92_61)"/>
<defs>
<linearGradient id="paint0_linear_92_61" x1="6.96791" y1="25" x2="64.1047" y2="25" gradientUnits="userSpaceOnUse">
<stop stop-color="#FF00C1"/>
<stop offset="1" stop-color="#00FFF9"/>
</linearGradient>
</defs>
</svg>
