<svg width="50" height="37" viewBox="0 0 50 37" fill="none" xmlns="http://www.w3.org/2000/svg">
<path d="M29.5455 20.4545C27.6515 20.4545 26.0417 19.7917 24.7159 18.4659C23.3902 17.1402 22.7273 15.5303 22.7273 13.6364C22.7273 11.7424 23.3902 10.1326 24.7159 8.80682C26.0417 7.48106 27.6515 6.81818 29.5455 6.81818C31.4394 6.81818 33.0492 7.48106 34.375 8.80682C35.7008 10.1326 36.3636 11.7424 36.3636 13.6364C36.3636 15.5303 35.7008 17.1402 34.375 18.4659C33.0492 19.7917 31.4394 20.4545 29.5455 20.4545ZM13.6364 27.2727C12.3864 27.2727 11.3163 26.8277 10.4261 25.9375C9.53599 25.0473 9.09091 23.9773 9.09091 22.7273V4.54545C9.09091 3.29545 9.53599 2.22538 10.4261 1.33523C11.3163 0.445076 12.3864 0 13.6364 0H45.4545C46.7045 0 47.7746 0.445076 48.6648 1.33523C49.5549 2.22538 50 3.29545 50 4.54545V22.7273C50 23.9773 49.5549 25.0473 48.6648 25.9375C47.7746 26.8277 46.7045 27.2727 45.4545 27.2727H13.6364ZM18.1818 22.7273H40.9091C40.9091 21.4773 41.3542 20.4072 42.2443 19.517C43.1345 18.6269 44.2045 18.1818 45.4545 18.1818V9.09091C44.2045 9.09091 43.1345 8.64583 42.2443 7.75568C41.3542 6.86553 40.9091 5.79545 40.9091 4.54545H18.1818C18.1818 5.79545 17.7367 6.86553 16.8466 7.75568C15.9564 8.64583 14.8864 9.09091 13.6364 9.09091V18.1818C14.8864 18.1818 15.9564 18.6269 16.8466 19.517C17.7367 20.4072 18.1818 21.4773 18.1818 22.7273ZM43.1818 36.3636H4.54545C3.29545 36.3636 2.22538 35.9186 1.33523 35.0284C0.445076 34.1383 0 33.0682 0 31.8182V6.81818H4.54545V31.8182H43.1818V36.3636Z" fill="url(#paint0_linear_92_61)"/>
<defs>
<linearGradient id="paint0_linear_92_61" x1="5.06757" y1="18.1818" x2="46.6216" y2="18.1818" gradientUnits="userSpaceOnUse">
<stop stop-color="#FF00C1"/>
<stop offset="1" stop-color="#00FFF9"/>
</linearGradient>
</defs>
</svg>
