<svg width="63" height="50" viewBox="0 0 63 50" fill="none" xmlns="http://www.w3.org/2000/svg">
<path d="M50.1695 28.125V21.875H62.7119V28.125H50.1695ZM53.9322 50L43.8983 42.5L47.661 37.5L57.6949 45L53.9322 50ZM47.661 12.5L43.8983 7.5L53.9322 0L57.6949 5L47.661 12.5ZM9.40678 46.875V34.375H6.27119C4.54661 34.375 3.07027 33.763 1.84216 32.5391C0.614054 31.3151 0 29.8438 0 28.125V21.875C0 20.1562 0.614054 18.6849 1.84216 17.4609C3.07027 16.237 4.54661 15.625 6.27119 15.625H18.8136L34.4915 6.25V43.75L18.8136 34.375H15.678V46.875H9.40678ZM28.2203 32.6562V17.3438L20.5381 21.875H6.27119V28.125H20.5381L28.2203 32.6562ZM37.6271 35.4688V14.5312C39.0381 15.7812 40.1748 17.3047 41.0371 19.1016C41.8994 20.8984 42.3305 22.8646 42.3305 25C42.3305 27.1354 41.8994 29.1016 41.0371 30.8984C40.1748 32.6953 39.0381 34.2188 37.6271 35.4688Z" fill="url(#paint0_linear_91_21)"/>
<defs>
<linearGradient id="paint0_linear_91_21" x1="6.35593" y1="25" x2="58.4746" y2="25" gradientUnits="userSpaceOnUse">
<stop stop-color="#FF00C1"/>
<stop offset="1" stop-color="#00FFF9"/>
</linearGradient>
</defs>
</svg>
