<svg width="50" height="40" viewBox="0 0 50 40" fill="none" xmlns="http://www.w3.org/2000/svg">
<path d="M40 22.424V17.4409H50V22.424H40ZM43 39.8649L35 33.8851L38 29.8986L46 35.8784L43 39.8649ZM38 9.96622L35 5.97973L43 0L46 3.98649L38 9.96622ZM7.5 37.3733V27.4071H5C3.625 27.4071 2.44792 26.9192 1.46875 25.9433C0.489583 24.9674 0 23.7943 0 22.424V17.4409C0 16.0705 0.489583 14.8974 1.46875 13.9216C2.44792 12.9457 3.625 12.4578 5 12.4578H15L27.5 4.98311V34.8818L15 27.4071H12.5V37.3733H7.5ZM22.5 26.0367V13.8281L16.375 17.4409H5V22.424H16.375L22.5 26.0367ZM30 28.2791V11.5857C31.125 12.5823 32.0313 13.797 32.7188 15.2296C33.4063 16.6623 33.75 18.2299 33.75 19.9324C33.75 21.635 33.4063 23.2026 32.7188 24.6352C32.0313 26.0679 31.125 27.2825 30 28.2791Z" fill="url(#paint0_linear_91_21)"/>
<defs>
<linearGradient id="paint0_linear_91_21" x1="5.06757" y1="19.9324" x2="46.6216" y2="19.9324" gradientUnits="userSpaceOnUse">
<stop stop-color="#FF00C1"/>
<stop offset="1" stop-color="#00FFF9"/>
</linearGradient>
</defs>
</svg>
