<svg width="50" height="50" viewBox="0 0 50 50" fill="none" xmlns="http://www.w3.org/2000/svg">
<path d="M17 22.375L22.375 16.9375L18.875 13.375L16.125 16.125L12.625 12.625L15.3125 9.875L12.5 7.0625L7.0625 12.5L17 22.375ZM37.5 42.9375L42.9375 37.5L40.125 34.6875L37.375 37.375L33.875 33.875L36.5625 31.125L33 27.625L27.625 33L37.5 42.9375ZM13.125 47.5H2.5V36.875L13.4375 25.9375L0 12.5L12.5 0L26 13.5L35.4375 4C35.9375 3.5 36.5 3.125 37.125 2.875C37.75 2.625 38.3958 2.5 39.0625 2.5C39.7292 2.5 40.375 2.625 41 2.875C41.625 3.125 42.1875 3.5 42.6875 4L46 7.375C46.5 7.875 46.875 8.4375 47.125 9.0625C47.375 9.6875 47.5 10.3333 47.5 11C47.5 11.6667 47.375 12.3021 47.125 12.9062C46.875 13.5104 46.5 14.0625 46 14.5625L36.5625 24.0625L50 37.5L37.5 50L24.0625 36.5625L13.125 47.5ZM7.5 42.5H11L35.5 18.0625L31.9375 14.5L7.5 39V42.5ZM33.75 16.3125L31.9375 14.5L35.5 18.0625L33.75 16.3125Z" fill="url(#paint0_linear_91_27)"/>
<defs>
<linearGradient id="paint0_linear_91_27" x1="5.06757" y1="25" x2="46.6216" y2="25" gradientUnits="userSpaceOnUse">
<stop stop-color="#FF00C1"/>
<stop offset="1" stop-color="#00FFF9"/>
</linearGradient>
</defs>
</svg>
