<svg preserveAspectRatio="xMidYMid meet" viewBox="0 0 50 50" fill="none" xmlns="http://www.w3.org/2000/svg">
<path d="M17.7054 9.4666C15.2888 9.55965 13.1041 10.4221 11.936 11.5916C11.807 11.7205 11.6538 11.8228 11.4852 11.8926C11.3167 11.9623 11.136 11.9982 10.9536 11.9981C10.7712 11.998 10.5905 11.9621 10.422 11.8922C10.2535 11.8223 10.1004 11.7199 9.97145 11.5909C9.8425 11.4618 9.74023 11.3087 9.67048 11.1401C9.60073 10.9715 9.56486 10.7909 9.56493 10.6085C9.56499 10.426 9.60099 10.2454 9.67086 10.0769C9.74073 9.90837 9.84311 9.75527 9.97215 9.62632C11.7735 7.82494 14.7068 6.80273 17.5971 6.69023C20.5068 6.57773 23.6832 7.37356 25.9081 9.59854C26.1686 9.85915 26.3148 10.2125 26.3147 10.581C26.3145 10.9494 26.1681 11.3027 25.9075 11.5631C25.6468 11.8235 25.2935 11.9698 24.925 11.9696C24.5566 11.9695 24.2033 11.823 23.9429 11.5624C22.429 10.0472 20.104 9.37216 17.7054 9.46521" fill="url(#paint0_linear_7_8)"/>
<path fill-rule="evenodd" clip-rule="evenodd" d="M31.8553 29.6998C34.6092 26.4455 36.1174 22.3186 36.1109 18.0554C36.1109 8.08328 28.0276 0 18.0554 0C8.08328 0 0 8.08328 0 18.0554C0 28.0276 8.08328 36.1109 18.0554 36.1109C22.4929 36.1109 26.5554 34.5109 29.6998 31.8553L29.1665 34.922L39.6025 45.358L45.358 39.6025L34.922 29.1665L31.8553 29.6998ZM18.0554 31.9442C25.7262 31.9442 31.9442 25.7262 31.9442 18.0554C31.9442 10.3846 25.7262 4.16664 18.0554 4.16664C10.3846 4.16664 4.16664 10.3846 4.16664 18.0554C4.16664 25.7262 10.3846 31.9442 18.0554 31.9442Z" fill="url(#paint1_linear_7_8)"/>
<path d="M41.5664 47.3219L47.3219 41.5664L49.2052 43.4497C50.2649 44.5094 50.2649 46.2275 49.2052 47.2858L47.2858 49.2052C46.2261 50.2649 44.508 50.2649 43.4497 49.2052L41.5664 47.3219Z" fill="#00FFF9"/>
<defs>
<linearGradient id="paint0_linear_7_8" x1="11.2625" y1="9.33901" x2="25.1829" y2="9.33901" gradientUnits="userSpaceOnUse">
<stop stop-color="#FF00C1"/>
<stop offset="1" stop-color="#00FFF9"/>
</linearGradient>
<linearGradient id="paint1_linear_7_8" x1="4.5971" y1="22.679" x2="42.2933" y2="22.679" gradientUnits="userSpaceOnUse">
<stop stop-color="#FF00C1"/>
<stop offset="1" stop-color="#00FFF9"/>
</linearGradient>
</defs>
</svg>
