<svg preserveAspectRatio="xMidYMid meet" viewBox="0 0 58 54" fill="none" xmlns="http://www.w3.org/2000/svg">
<path d="M14.175 24.9167C16.4139 24.9167 18.4333 23.6778 19.8167 21.9167C21.9729 19.1656 24.6797 16.895 27.7639 15.25C29.7722 14.1833 31.5139 12.5944 32.3556 10.4861C32.9467 9.00903 33.2503 7.43264 33.25 5.84167V4.08333C33.25 3.5308 33.4695 3.00089 33.8602 2.61019C34.2509 2.21949 34.7808 2 35.3333 2C36.9909 2 38.5807 2.65848 39.7528 3.83058C40.9249 5.00268 41.5833 6.5924 41.5833 8.25C41.5833 11.45 40.8611 14.4806 39.575 17.1889C38.8361 18.7389 39.8722 20.75 41.5889 20.75M41.5889 20.75H50.2722C53.1222 20.75 55.675 22.6778 55.9778 25.5139C56.1028 26.6861 56.1667 27.875 56.1667 29.0833C56.1782 36.6843 53.5807 44.059 48.8083 49.975C47.7306 51.3139 46.0667 52 44.35 52H33.1945C31.8528 52 30.5167 51.7833 29.2417 51.3611L20.5917 48.4722C19.317 48.0483 17.9823 47.8326 16.6389 47.8333H12.15M41.5889 20.75H35.3333M12.15 47.8333C12.3806 48.4028 12.6306 48.9583 12.9 49.5056C13.4472 50.6167 12.6833 52 11.4472 52H8.92501C6.45557 52 4.16668 50.5611 3.44723 48.2C2.48513 45.0423 1.9974 41.7593 2.00001 38.4583C2.00001 34.1444 2.81946 30.025 4.30834 26.2417C5.15834 24.0917 7.32501 22.8333 9.6389 22.8333H12.5639C13.875 22.8333 14.6333 24.3778 13.9528 25.5C11.5803 29.4054 10.329 33.8887 10.3361 38.4583C10.3361 41.775 10.9806 44.9389 12.1528 47.8333H12.15Z" stroke="url(#paint0_linear_7_18)" stroke-width="3" stroke-linecap="round" stroke-linejoin="round"/>
<defs>
<linearGradient id="paint0_linear_7_18" x1="7.48987" y1="27" x2="52.5068" y2="27" gradientUnits="userSpaceOnUse">
<stop stop-color="#FF00C1"/>
<stop offset="1" stop-color="#00FFF9"/>
</linearGradient>
</defs>
</svg>
