<svg preserveAspectRatio="xMidYMid meet" viewBox="0 0 52 54" fill="none" xmlns="http://www.w3.org/2000/svg">
<path d="M19.1874 4.61111C19.4374 3.10556 20.743 2 22.2707 2H29.4735C31.0013 2 32.3069 3.10556 32.5569 4.61111L33.1485 8.16944C33.3235 9.20833 34.018 10.075 34.9402 10.5861C35.1457 10.6972 35.3485 10.8167 35.5513 10.9389C36.4541 11.4833 37.5513 11.6528 38.5374 11.2833L41.918 10.0167C42.6107 9.75613 43.3735 9.74994 44.0704 9.9992C44.7673 10.2485 45.3531 10.737 45.7235 11.3778L49.3235 17.6194C49.6931 18.2603 49.8234 19.0115 49.6911 19.7393C49.5589 20.4672 49.1727 21.1246 48.6013 21.5944L45.8152 23.8917C45.0013 24.5611 44.5985 25.5944 44.6207 26.6472C44.6246 26.8833 44.6246 27.1195 44.6207 27.3556C44.5985 28.4056 45.0013 29.4389 45.8152 30.1083L48.6041 32.4056C49.7819 33.3778 50.0874 35.0583 49.3263 36.3778L45.7207 42.6194C45.3509 43.2601 44.7657 43.7488 44.0694 43.9985C43.3731 44.2483 42.6107 44.2429 41.918 43.9833L38.5374 42.7167C37.5513 42.3472 36.4541 42.5167 35.5485 43.0611C35.3472 43.1836 35.1434 43.3022 34.9374 43.4167C34.018 43.925 33.3235 44.7917 33.1485 45.8306L32.5569 49.3889C32.3069 50.8972 31.0013 52 29.4735 52H22.268C20.7402 52 19.4374 50.8944 19.1846 49.3889L18.593 45.8306C18.4207 44.7917 17.7263 43.925 16.8041 43.4139C16.5981 43.3003 16.3944 43.1827 16.193 43.0611C15.2902 42.5167 14.193 42.3472 13.2041 42.7167L9.82352 43.9833C9.1311 44.2431 8.36898 44.2489 7.67269 43.9997C6.97639 43.7505 6.39105 43.2624 6.02074 42.6222L2.41796 36.3806C2.04836 35.7397 1.9181 34.9885 2.05034 34.2606C2.18259 33.5328 2.56878 32.8754 3.14019 32.4056L5.92908 30.1083C6.74019 29.4417 7.14296 28.4056 7.12352 27.3556C7.11918 27.1195 7.11918 26.8833 7.12352 26.6472C7.14296 25.5917 6.74019 24.5611 5.92908 23.8917L3.14019 21.5944C2.56946 21.1247 2.18373 20.4679 2.0515 19.7406C1.91927 19.0134 2.04912 18.2628 2.41796 17.6222L6.02074 11.3806C6.39071 10.7393 6.97633 10.2502 7.67328 10.0004C8.37022 9.7506 9.13321 9.75637 9.8263 10.0167L13.2041 11.2833C14.193 11.6528 15.2902 11.4833 16.193 10.9389C16.393 10.8167 16.5985 10.7 16.8041 10.5833C17.7263 10.075 18.4207 9.20833 18.593 8.16944L19.1874 4.61111Z" stroke="url(#paint0_linear_7_16)" stroke-width="3" stroke-linecap="round" stroke-linejoin="round"/>
<path d="M34.2041 27C34.2041 29.2101 33.3261 31.3298 31.7633 32.8926C30.2005 34.4554 28.0809 35.3333 25.8707 35.3333C23.6606 35.3333 21.541 34.4554 19.9782 32.8926C18.4154 31.3298 17.5374 29.2101 17.5374 27C17.5374 24.7899 18.4154 22.6702 19.9782 21.1074C21.541 19.5446 23.6606 18.6667 25.8707 18.6667C28.0809 18.6667 30.2005 19.5446 31.7633 21.1074C33.3261 22.6702 34.2041 24.7899 34.2041 27Z" stroke="url(#paint1_linear_7_16)" stroke-width="3" stroke-linecap="round" stroke-linejoin="round"/>
<defs>
<linearGradient id="paint0_linear_7_16" x1="6.83881" y1="27" x2="46.517" y2="27" gradientUnits="userSpaceOnUse">
<stop stop-color="#FF00C1"/>
<stop offset="1" stop-color="#00FFF9"/>
</linearGradient>
<linearGradient id="paint1_linear_7_16" x1="19.2266" y1="27" x2="33.0779" y2="27" gradientUnits="userSpaceOnUse">
<stop stop-color="#FF00C1"/>
<stop offset="1" stop-color="#00FFF9"/>
</linearGradient>
</defs>
</svg>
