<svg preserveAspectRatio="xMidYMid meet" viewBox="0 0 63 54" fill="none" xmlns="http://www.w3.org/2000/svg">
<path d="M2 45.4658C18.2748 45.4525 34.4789 47.6077 50.1845 51.8743C52.402 52.4783 54.6165 50.8311 54.6165 48.5313V45.4658M6.57535 2V4.28767C6.57535 4.8944 6.33432 5.47628 5.9053 5.9053C5.47628 6.33432 4.8944 6.57535 4.28767 6.57535H2M2 6.57535V5.43151C2 3.53732 3.53732 2 5.43151 2H56.9041M2 6.57535V34.0274M56.9041 2V4.28767C56.9041 5.55047 57.929 6.57535 59.1918 6.57535H61.4795M56.9041 2H58.048C59.9422 2 61.4795 3.53732 61.4795 5.43151V35.1713C61.4795 37.0654 59.9422 38.6028 58.048 38.6028H56.9041M2 34.0274V35.1713C2 36.0813 2.36153 36.9542 3.00507 37.5977C3.6486 38.2412 4.52142 38.6028 5.43151 38.6028H6.57535M2 34.0274H4.28767C4.8944 34.0274 5.47628 34.2684 5.9053 34.6975C6.33432 35.1265 6.57535 35.7084 6.57535 36.3151V38.6028M56.9041 38.6028V36.3151C56.9041 35.7084 57.1452 35.1265 57.5742 34.6975C58.0032 34.2684 58.5851 34.0274 59.1918 34.0274H61.4795M56.9041 38.6028H6.57535M40.8904 20.3014C40.8904 22.7283 39.9263 25.0558 38.2103 26.7719C36.4942 28.488 34.1667 29.4521 31.7397 29.4521C29.3128 29.4521 26.9853 28.488 25.2692 26.7719C23.5531 25.0558 22.5891 22.7283 22.5891 20.3014C22.5891 17.8745 23.5531 15.547 25.2692 13.8309C26.9853 12.1148 29.3128 11.1507 31.7397 11.1507C34.1667 11.1507 36.4942 12.1148 38.2103 13.8309C39.9263 15.547 40.8904 17.8745 40.8904 20.3014ZM50.0411 20.3014H50.0655V20.3258H50.0411V20.3014ZM13.4384 20.3014H13.4628V20.3258H13.4384V20.3014Z" stroke="url(#paint0_linear_8_50)" stroke-width="3" stroke-linecap="round" stroke-linejoin="round"/>
<defs>
<linearGradient id="paint0_linear_8_50" x1="8.02833" y1="27" x2="57.4606" y2="27" gradientUnits="userSpaceOnUse">
<stop stop-color="#FF00C1"/>
<stop offset="1" stop-color="#00FFF9"/>
</linearGradient>
</defs>
</svg>
