<svg preserveAspectRatio="xMidYMid meet" viewBox="0 0 74 54" fill="none" xmlns="http://www.w3.org/2000/svg">
<path d="M62.0002 26.9999C62.0002 22.8932 61.8469 18.8232 61.5402 14.7932C61.3044 11.6003 59.9292 8.59848 57.6654 6.33463C55.4016 4.07079 52.3997 2.69565 49.2069 2.4598C41.0806 1.84673 32.9197 1.84673 24.7934 2.4598C21.6006 2.69565 18.5987 4.07079 16.3349 6.33463C14.071 8.59848 12.6959 11.6003 12.46 14.7932C12.4034 15.5265 12.3534 16.2632 12.3067 16.9999M62.0002 26.9999L72.0003 16.9999M62.0002 26.9999L52.0002 16.9999M12 26.9999C12 31.1066 12.1534 35.1766 12.46 39.2066C12.6959 42.3995 14.071 45.4013 16.3349 47.6652C18.5987 49.929 21.6006 51.3041 24.7934 51.54C32.9197 52.1533 41.0806 52.1533 49.2069 51.54C52.3997 51.3041 55.4016 49.929 57.6654 47.6652C59.9292 45.4013 61.3044 42.3995 61.5402 39.2066C61.5969 38.4733 61.6469 37.7366 61.6936 36.9999M12 26.9999L22.0001 36.9999M12 26.9999L2 36.9999" stroke="url(#paint0_linear_8_56)" stroke-width="3" stroke-linecap="round" stroke-linejoin="round"/>
<defs>
<linearGradient id="paint0_linear_8_56" x1="9.09462" y1="27" x2="67.2705" y2="27" gradientUnits="userSpaceOnUse">
<stop stop-color="#FF00C1"/>
<stop offset="1" stop-color="#00FFF9"/>
</linearGradient>
</defs>
</svg>
