<svg preserveAspectRatio="xMidYMid meet" viewBox="0 0 50 50" fill="none" xmlns="http://www.w3.org/2000/svg">
<path d="M27.5 44.75C30.323 44.1728 32.86 42.6384 34.6821 40.4063C36.5043 38.1742 37.4996 35.3814 37.5 32.5V25C37.5 23.2475 37.14 21.555 36.4625 20H13.5375C12.85 21.5771 12.4967 23.2796 12.5 25V32.5C12.5004 35.3814 13.4957 38.1742 15.3179 40.4063C17.14 42.6384 19.677 44.1728 22.5 44.75V30H27.5V44.75ZM8.84 39.225C7.95295 37.094 7.49749 34.8082 7.5 32.5H0V27.5H7.5V25C7.5 23.3925 7.7175 21.8375 8.1225 20.36L2.59 17.165L5.09 12.835L10.14 15.75C10.2994 15.4958 10.4653 15.2457 10.6375 15H39.3625C39.535 15.245 39.7 15.4975 39.86 15.75L44.91 12.835L47.41 17.165L41.8775 20.36C42.2825 21.835 42.5 23.3925 42.5 25V27.5H50V32.5H42.5C42.5038 34.8084 42.0483 37.0944 41.16 39.225L47.41 42.835L44.91 47.165L38.595 43.52C36.9559 45.5459 34.8843 47.1794 32.5319 48.3007C30.1795 49.4219 27.606 50.0026 25 50C22.394 50.0026 19.8205 49.4219 17.4681 48.3007C15.1157 47.1794 13.0441 45.5459 11.405 43.52L5.09 47.165L2.59 42.835L8.84 39.225ZM15 10C15 7.34783 16.0536 4.8043 17.9289 2.92893C19.8043 1.05357 22.3478 0 25 0C27.6522 0 30.1957 1.05357 32.0711 2.92893C33.9464 4.8043 35 7.34783 35 10H15Z" fill="url(#paint0_linear_1_38)"/>
<defs>
<linearGradient id="paint0_linear_1_38" x1="5.06757" y1="25" x2="46.6216" y2="25" gradientUnits="userSpaceOnUse">
<stop stop-color="#FF00C1"/>
<stop offset="1" stop-color="#00FFF9"/>
</linearGradient>
</defs>
</svg>
