<svg preserveAspectRatio="xMidYMid meet" viewBox="0 0 54 54" fill="none" xmlns="http://www.w3.org/2000/svg">
<path d="M36.2051 33.0769C36.739 35.3361 36.7548 37.6868 36.2512 39.9529C35.7476 42.219 34.7377 44.3418 33.2972 46.1622C31.8567 47.9825 30.0229 49.4533 27.9332 50.4643C25.8435 51.4753 23.5522 52.0003 21.2308 52V39.6923M36.2051 33.0769C41.1023 29.5097 45.0861 24.8346 47.8312 19.4335C50.5763 14.0325 52.0048 8.05864 52 2.00001C45.9418 1.99563 39.9685 3.42433 34.5679 6.16941C29.1673 8.91449 24.4926 12.8981 20.9256 17.7949M36.2051 33.0769C31.7485 36.3366 26.6418 38.5934 21.2308 39.6923M21.2308 39.6923C20.9667 39.7462 20.7 39.7974 20.4333 39.8462C18.1071 38.0016 16.001 35.8954 14.1564 33.5692C14.2048 33.302 14.2536 33.0353 14.3077 32.7692M20.9256 17.7949C18.6663 17.2605 16.3153 17.2444 14.0489 17.7478C11.7825 18.2512 9.65934 19.261 7.83865 20.7016C6.01796 22.1421 4.54692 23.9761 3.53577 26.066C2.52461 28.1559 1.99958 30.4476 2 32.7692H14.3077M20.9256 17.7949C17.6664 22.2508 15.4071 27.3591 14.3077 32.7692M8.56667 38.8974C6.87995 40.1517 5.56853 41.8435 4.77442 43.7897C3.98031 45.7359 3.73379 47.8622 4.06154 49.9385C6.13802 50.2659 8.26452 50.019 10.2107 49.2244C12.1569 48.4299 13.8486 47.118 15.1026 45.4308M38.5385 19.3077C38.5385 20.3278 38.1332 21.306 37.4119 22.0273C36.6906 22.7486 35.7124 23.1539 34.6923 23.1539C33.6722 23.1539 32.694 22.7486 31.9727 22.0273C31.2514 21.306 30.8461 20.3278 30.8461 19.3077C30.8461 18.2876 31.2514 17.3094 31.9727 16.5881C32.694 15.8668 33.6722 15.4615 34.6923 15.4615C35.7124 15.4615 36.6906 15.8668 37.4119 16.5881C38.1332 17.3094 38.5385 18.2876 38.5385 19.3077Z" stroke="url(#paint0_linear_1_40)" stroke-width="3" stroke-linecap="square" stroke-linejoin="round"/>
<defs>
<linearGradient id="paint0_linear_1_40" x1="7.06757" y1="27" x2="48.6216" y2="27" gradientUnits="userSpaceOnUse">
<stop stop-color="#FF00C1"/>
<stop offset="1" stop-color="#00FFF9"/>
</linearGradient>
</defs>
</svg>
