<svg preserveAspectRatio="xMidYMid meet" viewBox="0 0 50 50" fill="none" xmlns="http://www.w3.org/2000/svg">
<path d="M25 50C21.5333 50 18.2844 49.3479 15.2531 48.0438C12.2219 46.7396 9.57396 44.9552 7.30938 42.6906C5.04271 40.424 3.25729 37.775 1.95312 34.7438C0.651042 31.7125 0 28.4646 0 25C0 21.5354 0.652083 18.2875 1.95625 15.2563C3.26042 12.225 5.04583 9.57604 7.3125 7.30938C9.575 5.04479 12.2208 3.26042 15.25 1.95625C18.2833 0.652083 21.5323 0 24.9969 0C28.5865 0 32.0052 0.741666 35.2531 2.225C38.501 3.70625 41.3323 5.77292 43.7469 8.425V0.9625H46.8719V13.9437H33.8906V10.8187H41.6437C39.4688 8.42292 36.9583 6.54167 34.1125 5.175C31.2708 3.80833 28.2333 3.125 25 3.125C18.9042 3.125 13.7344 5.24792 9.49063 9.49375C5.24688 13.7396 3.12396 18.9083 3.12188 25C3.12188 31.0938 5.24479 36.2635 9.49063 40.5094C13.7365 44.7552 18.9052 46.8771 24.9969 46.875C30.4656 46.875 35.225 45.0938 39.275 41.5313C43.3229 37.9688 45.7708 33.5 46.6187 28.125H49.7812C49.0396 34.4188 46.3104 39.6375 41.5938 43.7812C36.875 47.9271 31.3438 50 25 50ZM34.8281 37.0438L23.4344 25.65V9.375H26.5594V24.35L37.0406 34.8312L34.8281 37.0438Z" fill="url(#paint0_linear_1_42)"/>
<defs>
<linearGradient id="paint0_linear_1_42" x1="5.0454" y1="25" x2="46.4177" y2="25" gradientUnits="userSpaceOnUse">
<stop stop-color="#FF00C1"/>
<stop offset="1" stop-color="#00FFF9"/>
</linearGradient>
</defs>
</svg>
