    <svg viewBox="0 0 1920 182" fill="none" xmlns="http://www.w3.org/2000/svg">
    <path d="M0 93.6958L45.8189 96.2512C91.6378 98.5936 183.276 103.704 274.487 116.694C365.912 129.896 456.697 151.191 548.122 165.032C639.333 178.874 730.971 185.262 822.183 180.364C913.607 175.254 1004.39 159.07 1095.82 149.7C1187.03 140.544 1278.67 138.414 1369.88 128.193C1461.3 117.759 1552.09 99.4453 1643.51 99.0194C1734.72 98.5935 1826.36 116.481 1872.18 125.212L1918 134.155V0H1872.18C1826.36 0 1734.72 0 1643.51 0C1552.09 0 1461.3 0 1369.88 0C1278.67 0 1187.03 0 1095.82 0C1004.39 0 913.607 0 822.183 0C730.971 0 639.333 0 548.122 0C456.697 0 365.912 0 274.487 0C183.276 0 91.6378 0 45.8189 0H0V93.6958Z" fill="#02001C"/>
    </svg>

