<svg viewBox="0 0 1920 160" fill="none" xmlns="http://www.w3.org/2000/svg">
<path d="M0 80.7064L45.9861 68.9195C91.9722 57.1326 183.944 33.5588 275.489 21.3433C367.247 9.34208 458.364 8.4849 550.122 5.05599C641.667 1.41277 733.639 -5.01647 825.183 6.77042C916.942 18.5573 1008.06 48.5603 1099.82 61.4187C1191.36 74.2772 1283.33 69.991 1374.88 53.4893C1466.64 37.202 1557.75 8.4849 1649.51 3.98445C1741.06 -0.730301 1833.03 18.5573 1879.01 28.2011L1925 37.8449V160H1879.01C1833.03 160 1741.06 160 1649.51 160C1557.75 160 1466.64 160 1374.88 160C1283.33 160 1191.36 160 1099.82 160C1008.06 160 916.942 160 825.183 160C733.639 160 641.667 160 550.122 160C458.364 160 367.247 160 275.489 160C183.944 160 91.9722 160 45.9861 160H0V80.7064Z" fill="#02001C"/>
</svg>