<svg preserveAspectRatio="xMidYMid meet" viewBox="0 0 70 50" fill="none" xmlns="http://www.w3.org/2000/svg">
<path d="M24.358 0.000147618C23.0222 0.000147618 21.5352 0.867144 20.4093 3.11868L19.4039 5.13034C19.7702 5.10036 20.1377 5.08456 20.505 5.08456C23.1665 5.08456 25.8229 5.87667 28.1662 7.44436V2.86803C27.0584 0.812495 25.6402 0 24.3582 0L24.358 0.000147618ZM44.9072 0.000147618C43.6251 0.000147618 42.2072 0.812495 41.0995 2.86818V7.44598C43.7675 5.66472 46.8443 4.89373 49.8647 5.13625L48.8559 3.11868C47.7299 0.866996 46.2428 0.000147618 44.907 0.000147618H44.9072ZM20.5048 7.6696C17.6912 7.6696 14.8804 8.80585 12.5675 11.0667L7.04645 20.7289C9.18691 19.733 11.5709 19.1754 14.0829 19.1754C19.9849 19.1754 25.184 22.2464 28.166 26.8741V10.7982C25.9072 8.71339 23.2063 7.6696 20.5048 7.6696ZM48.9271 7.67447C46.1707 7.62927 43.4046 8.66996 41.0995 10.7976V26.8739C44.0815 22.2465 49.2806 19.1754 55.1823 19.1754C57.6947 19.1754 60.0786 19.733 62.2192 20.7289L56.6982 11.0667C54.431 8.85075 51.6838 7.71981 48.9274 7.67447H48.9271ZM34.6326 9.63297C33.8774 9.63297 32.8776 10.0428 30.8245 11.0549V30.701C31.8947 29.9161 33.2119 29.4504 34.6326 29.4504C36.0535 29.4504 37.3705 29.9163 38.4407 30.7011V11.0549C36.3877 10.0428 35.3878 9.63297 34.6326 9.63297ZM14.0832 21.834C6.28949 21.834 0 28.1233 0 35.9168C0 43.7104 6.28949 50 14.0832 50C21.8765 50 28.1659 43.7104 28.1659 35.9168C28.1659 28.1233 21.8765 21.834 14.083 21.834H14.0832ZM55.182 21.834C47.3887 21.834 41.0993 28.1233 41.0993 35.9168C41.0993 43.7104 47.3887 50 55.1822 50C62.9759 50 69.2653 43.7104 69.2653 35.9168C69.2653 28.1233 62.9759 21.834 55.1822 21.834H55.182ZM13.8517 24.6409C14.0326 24.6382 14.2135 24.6397 14.3944 24.6453C15.4791 24.6785 16.5647 24.8612 17.6098 25.2089C23.0513 26.8843 26.4341 32.8397 25.0866 38.3704C23.9564 43.9451 18.3729 47.8985 12.7397 47.1098C7.01662 46.539 2.49287 41.2642 2.82018 35.5179C2.84484 33.8327 3.28292 32.2189 4.03131 30.7732C4.29572 31.5251 4.78681 32.1765 5.43691 32.6377C6.08701 33.0988 6.86413 33.347 7.66118 33.3481C8.16717 33.3481 8.66821 33.2485 9.1357 33.0549C9.6032 32.8614 10.028 32.5776 10.3858 32.2198C10.7436 31.8621 11.0275 31.4374 11.2212 30.9699C11.4149 30.5025 11.5146 30.0014 11.5147 29.4955C11.5137 28.698 11.2653 27.9204 10.8038 27.27C10.3422 26.6197 9.69024 26.1285 8.93774 25.8644C10.2756 25.1711 11.7584 24.7428 13.3105 24.6611C13.4907 24.6504 13.6711 24.6437 13.8516 24.6409H13.8517ZM54.9506 24.6409C55.1314 24.6382 55.3123 24.6397 55.4931 24.6453C56.5778 24.6785 57.6637 24.8612 58.7091 25.2089C64.1504 26.8843 67.533 32.8397 66.1857 38.3704C65.0555 43.9449 59.4723 47.8985 53.8395 47.1103C48.1161 46.5394 43.5921 41.264 43.9195 35.5176C43.9442 33.8324 44.3822 32.2189 45.1306 30.7732C45.395 31.5251 45.8861 32.1765 46.5362 32.6376C47.1863 33.0988 47.9633 33.347 48.7604 33.3481C49.7821 33.348 50.7621 32.9421 51.4846 32.2196C52.2072 31.4971 52.6131 30.5172 52.6133 29.4955C52.6124 28.698 52.3641 27.9205 51.9026 27.2702C51.4412 26.6198 50.7893 26.1286 50.0369 25.8644C51.3746 25.1711 52.8573 24.7428 54.4093 24.6611C54.5895 24.6505 54.7698 24.6437 54.9506 24.6409ZM34.6326 32.1089C32.5137 32.1089 30.8245 33.7979 30.8245 35.9168C30.8245 38.0357 32.5137 39.725 34.6326 39.725C36.7515 39.725 38.4407 38.0357 38.4407 35.9168C38.4407 33.7979 36.7515 32.1091 34.6326 32.1091V32.1089Z" fill="url(#paint0_linear_2_60)"/>
<defs>
<linearGradient id="paint0_linear_2_60" x1="7.02014" y1="25" x2="64.5853" y2="25" gradientUnits="userSpaceOnUse">
<stop stop-color="#FF00C1"/>
<stop offset="1" stop-color="#00FFF9"/>
</linearGradient>
</defs>
</svg>
