<svg preserveAspectRatio="xMidYMid meet" viewBox="0 0 56 54" fill="none" xmlns="http://www.w3.org/2000/svg">
<path d="M22.9722 37.5707C22.3014 35.9172 21.0767 34.5483 19.5076 33.6985C17.9385 32.8487 16.1228 32.571 14.3715 32.9127C12.6201 33.2545 11.0421 34.1946 9.90764 35.572C8.77322 36.9494 8.153 38.6783 8.1532 40.4627C8.15321 41.2527 7.99097 42.0342 7.67654 42.7589C7.36211 43.4835 6.9022 44.1359 6.3253 44.6755C5.74841 45.2152 5.06683 45.6306 4.32281 45.896C3.57879 46.1614 2.78819 46.2712 2 46.2185C3.26768 48.4207 5.22693 50.1429 7.57358 51.1175C9.92023 52.0922 12.523 52.2649 14.9779 51.6088C17.4327 50.9527 19.6023 49.5045 21.1498 47.4891C22.6973 45.4737 23.5362 43.0037 23.5362 40.4627C23.5362 39.4398 23.3362 38.4629 22.9722 37.5707ZM22.9722 37.5707C26.0206 36.5321 28.9361 35.138 31.6584 33.4173M18.729 33.3532C19.7679 30.2983 21.1637 27.3767 22.8876 24.649M31.6559 33.4173C36.5178 30.3455 40.6793 26.2853 43.87 21.5006L53.8074 6.59446C54.1881 6.02673 54.3599 5.34445 54.2934 4.66413C54.227 3.98382 53.9264 3.34767 53.4431 2.86432C52.9598 2.38098 52.3236 2.08042 51.6433 2.01398C50.963 1.94754 50.2807 2.11933 49.713 2.50002L34.8068 12.44C30.0215 15.6298 25.9605 19.7903 22.8876 24.6516C26.7894 26.3962 29.9113 29.518 31.6559 33.4199" stroke="url(#paint0_linear_2_58)" stroke-width="3" stroke-linecap="round" stroke-linejoin="round"/>
<defs>
<linearGradient id="paint0_linear_2_58" x1="7.30143" y1="27" x2="50.7731" y2="27" gradientUnits="userSpaceOnUse">
<stop stop-color="#FF00C1"/>
<stop offset="1" stop-color="#00FFF9"/>
</linearGradient>
</defs>
</svg>
