<svg preserveAspectRatio="xMidYMid meet" viewBox="0 0 36 50" fill="none" xmlns="http://www.w3.org/2000/svg">
<path d="M33.4745 49.2188C33.4745 49.0116 33.3922 48.8128 33.2457 48.6663C33.0992 48.5198 32.9005 48.4375 32.6933 48.4375H4.5683C4.3611 48.4375 4.16238 48.5198 4.01587 48.6663C3.86936 48.8128 3.78705 49.0116 3.78705 49.2188C3.78705 49.426 3.86936 49.6247 4.01587 49.7712C4.16238 49.9177 4.3611 50 4.5683 50H32.6933C32.9005 50 33.0992 49.9177 33.2457 49.7712C33.3922 49.6247 33.4745 49.426 33.4745 49.2188ZM1.09017 14.6156C0.437047 15.05 -0.553579 16.3719 0.385484 18.25C1.16517 19.8078 2.79173 21.7141 4.52142 22.2172C4.93716 22.3475 5.37592 22.3875 5.80838 22.3347C6.24084 22.2819 6.65706 22.1374 7.02923 21.9109C8.74642 20.8828 10.7745 19.4922 11.6339 18.8953C12.7183 19.4438 14.087 19.5578 15.4777 19.2L15.4964 19.1938C15.4152 21.7734 14.5417 23.3844 10.2714 27.35C6.46517 30.8828 4.20736 35.5234 4.22923 39.7656C4.24486 42.5484 5.25892 44.9375 7.16673 46.6703C7.3105 46.802 7.49836 46.875 7.6933 46.875H29.5683C29.7755 46.875 29.9742 46.7927 30.1207 46.6462C30.2672 46.4997 30.3495 46.301 30.3495 46.0938C30.3495 45.8866 30.2672 45.6878 30.1207 45.5413C29.9742 45.3948 29.7755 45.3125 29.5683 45.3125H8.00423C6.5683 43.8984 5.8058 41.9844 5.7933 39.7578C5.77298 36.0047 7.89798 31.6875 11.3355 28.4953C15.8902 24.2672 17.0683 22.2641 17.0683 18.75C17.0683 18.6859 17.0464 18.6297 17.0324 18.5703C17.887 18.1094 18.6261 17.5 19.1308 16.7625C19.7636 15.8406 21.1261 13.4734 20.1152 11.3781C20.0704 11.2858 20.008 11.2032 19.9313 11.135C19.8546 11.0668 19.7653 11.0144 19.6684 10.9807C19.5715 10.947 19.4689 10.9328 19.3664 10.9388C19.264 10.9448 19.1638 10.9709 19.0714 11.0156C18.9791 11.0604 18.8965 11.1228 18.8283 11.1995C18.7601 11.2762 18.7077 11.3655 18.674 11.4624C18.6403 11.5593 18.6261 11.6619 18.6321 11.7644C18.6381 11.8668 18.6642 11.967 18.7089 12.0594C19.1636 13.0016 18.8402 14.4297 17.8433 15.8797C17.2683 16.7172 16.2402 17.3937 15.0917 17.6875C13.9245 17.9859 12.8152 17.8547 12.0417 17.325C11.9102 17.2348 11.7542 17.1871 11.5947 17.1882C11.4352 17.1894 11.2798 17.2393 11.1495 17.3312C11.1214 17.35 8.37298 19.2859 6.22923 20.5719C6.04131 20.6875 5.83033 20.7606 5.61114 20.786C5.39195 20.8113 5.16986 20.7884 4.96048 20.7188C3.75111 20.3656 2.42142 18.825 1.78548 17.5531C1.27142 16.525 1.79798 16.0344 2.03705 15.8594C7.42298 11.2078 10.1261 6.375 10.237 6.17031C10.2885 6.07573 10.32 5.97162 10.3296 5.86441C10.3393 5.75719 10.3269 5.64913 10.2933 5.54687C9.95533 4.5039 9.67368 3.44352 9.44955 2.37031C11.0839 3.35469 13.8949 4.72969 16.8214 4.72969C20.8902 4.72969 30.3495 6.24844 30.3495 20.3172C30.3495 20.3937 30.3355 28.0422 27.2714 36.4531C27.2351 36.5499 27.2184 36.6528 27.2222 36.7561C27.2259 36.8593 27.2501 36.9608 27.2934 37.0546C27.3366 37.1484 27.3981 37.2327 27.4741 37.3027C27.5502 37.3726 27.6393 37.4267 27.7365 37.462C27.8336 37.4972 27.9367 37.5128 28.0399 37.5079C28.1431 37.503 28.2443 37.4777 28.3377 37.4334C28.431 37.3892 28.5147 37.3268 28.5837 37.25C28.6528 37.1732 28.706 37.0834 28.7402 36.9859C31.898 28.3172 31.9136 20.6328 31.912 20.3125C31.912 4.40156 20.3605 3.16562 16.8214 3.16562C12.9011 3.16562 8.99017 0.192185 8.95267 0.160935C8.83609 0.0730688 8.69749 0.0191271 8.55218 0.00506496C8.40687 -0.00899719 8.2605 0.0173672 8.12923 0.0812476C7.99852 0.145658 7.88842 0.245345 7.81138 0.369044C7.73435 0.492743 7.69345 0.635522 7.6933 0.781248C7.6933 2.31406 8.41986 4.79375 8.70267 5.69844C8.04955 6.78906 5.47455 10.825 1.09017 14.6156Z" fill="url(#paint0_linear_2_54)"/>
<path d="M26.4199 2.40625C23.9183 0.720312 21.1214 0 17.0683 0C16.8611 0 16.6624 0.08231 16.5159 0.228823C16.3694 0.375336 16.287 0.57405 16.287 0.78125C16.287 0.98845 16.3694 1.18716 16.5159 1.33368C16.6624 1.48019 16.8611 1.5625 17.0683 1.5625C20.787 1.5625 23.323 2.20156 25.548 3.70156C29.1636 6.14219 33.4745 11.0047 33.4745 20.3125C33.4745 22.5797 33.4745 25.6844 31.9355 31.8422C31.8907 32.0413 31.9256 32.25 32.0327 32.4237C32.1397 32.5974 32.3106 32.7223 32.5086 32.7717C32.7066 32.8211 32.916 32.7911 33.0922 32.688C33.2683 32.585 33.3971 32.4171 33.4511 32.2203C35.037 25.8781 35.037 22.6609 35.037 20.3125C35.037 10.3188 30.3511 5.05781 26.4199 2.40625Z" fill="url(#paint1_linear_2_54)"/>
<defs>
<linearGradient id="paint0_linear_2_54" x1="3.39269" y1="25.0007" x2="31.2128" y2="25.0007" gradientUnits="userSpaceOnUse">
<stop stop-color="#FF00C1"/>
<stop offset="1" stop-color="#00FFF9"/>
</linearGradient>
<linearGradient id="paint1_linear_2_54" x1="18.1874" y1="16.3975" x2="33.7701" y2="16.3975" gradientUnits="userSpaceOnUse">
<stop stop-color="#FF00C1"/>
<stop offset="1" stop-color="#00FFF9"/>
</linearGradient>
</defs>
</svg>
