<svg preserveAspectRatio="xMidYMid meet" viewBox="0 0 69 54" fill="none" xmlns="http://www.w3.org/2000/svg">
<path d="M21.9994 47.0002C21.9994 48.3262 21.4727 49.5979 20.535 50.5356C19.5974 51.4732 18.3256 52 16.9996 52C15.6735 52 14.4018 51.4732 13.4642 50.5356C12.5265 49.5979 11.9997 48.3262 11.9997 47.0002M21.9994 47.0002C21.9994 45.6741 21.4727 44.4024 20.535 43.4647C19.5974 42.5271 18.3256 42.0003 16.9996 42.0003C15.6735 42.0003 14.4018 42.5271 13.4642 43.4647C12.5265 44.4024 11.9997 45.6741 11.9997 47.0002M21.9994 47.0002H41.9988M11.9997 47.0002H5.74994C4.75541 47.0002 3.80162 46.6051 3.09838 45.9018C2.39514 45.1986 2.00006 44.2448 2.00006 43.2503V32.0006M41.9988 47.0002H49.4985M41.9988 47.0002V32.0006M2.00006 32.0006V6.55145C1.99477 5.63871 2.32826 4.75646 2.936 4.07545C3.54373 3.39444 4.3825 2.9631 5.28996 2.8649C16.3998 1.7117 27.5991 1.7117 38.7089 2.8649C40.5922 3.05823 41.9988 4.65818 41.9988 6.55145V9.74468M2.00006 32.0006H41.9988M59.4982 47.0002C59.4982 48.3262 58.9715 49.5979 58.0338 50.5356C57.0962 51.4732 55.8244 52 54.4984 52C53.1723 52 51.9006 51.4732 50.963 50.5356C50.0253 49.5979 49.4985 48.3262 49.4985 47.0002M59.4982 47.0002C59.4982 45.6741 58.9715 44.4024 58.0338 43.4647C57.0962 42.5271 55.8244 42.0003 54.4984 42.0003C53.1723 42.0003 51.9006 42.5271 50.963 43.4647C50.0253 44.4024 49.4985 45.6741 49.4985 47.0002M59.4982 47.0002H63.2481C65.318 47.0002 67.0113 45.3202 66.8813 43.2536C66.2115 32.2461 62.5045 21.6395 56.1717 12.6113C55.5685 11.7656 54.7809 11.068 53.8686 10.5714C52.9562 10.0748 51.9429 9.79211 50.9052 9.74468H41.9988M41.9988 9.74468V32.0006" stroke="url(#paint0_linear_8_35)" stroke-width="3" stroke-linecap="round" stroke-linejoin="round"/>
<defs>
<linearGradient id="paint0_linear_8_35" x1="8.57652" y1="27" x2="62.504" y2="27" gradientUnits="userSpaceOnUse">
<stop stop-color="#FF00C1"/>
<stop offset="1" stop-color="#00FFF9"/>
</linearGradient>
</defs>
</svg>
