<svg preserveAspectRatio="xMidYMid meet" viewBox="0 0 54 50" fill="none" xmlns="http://www.w3.org/2000/svg">
<path d="M16.0714 0L14.2857 1.78571V7.23929C15.4726 7.1081 16.6703 7.1081 17.8571 7.23929V3.57143H50V21.4286H43.9036L39.2857 26.0464V21.4286H32.0464C32.1776 22.6154 32.1776 23.8131 32.0464 25H35.7143V30.3571L38.7643 31.6214L45.3821 25H51.7857L53.5714 23.2143V1.78571L51.7857 0H16.0714Z" fill="url(#paint0_linear_8_43)"/>
<path fill-rule="evenodd" clip-rule="evenodd" d="M22.9179 33.675C25.17 32.2007 26.886 30.0388 27.8107 27.5108C28.7354 24.9829 28.8194 22.224 28.0501 19.6445C27.2809 17.065 25.6995 14.8027 23.5413 13.1942C21.383 11.5856 18.7632 10.7167 16.0714 10.7167C13.3797 10.7167 10.7598 11.5856 8.60157 13.1942C6.44331 14.8027 4.86195 17.065 4.09272 19.6445C3.32348 22.224 3.40746 24.9829 4.33217 27.5108C5.25687 30.0388 6.9729 32.2007 9.225 33.675C6.46684 34.9742 4.13502 37.031 2.50162 39.6053C0.868221 42.1797 0.000601954 45.1655 0 48.2143L0 50H3.57143V48.2143C3.68105 44.9722 5.04602 41.8996 7.37825 39.6449C9.71048 37.3902 12.8275 36.1298 16.0714 36.1298C19.3153 36.1298 22.4324 37.3902 24.7646 39.6449C27.0968 41.8996 28.4618 44.9722 28.5714 48.2143V50H32.1429V48.2143C32.1423 45.1655 31.2746 42.1797 29.6412 39.6053C28.0078 37.031 25.676 34.9742 22.9179 33.675ZM16.0714 32.1429C13.7034 32.1429 11.4324 31.2022 9.75798 29.5277C8.08354 27.8533 7.14286 25.5823 7.14286 23.2143C7.14286 20.8463 8.08354 18.5753 9.75798 16.9008C11.4324 15.2264 13.7034 14.2857 16.0714 14.2857C18.4394 14.2857 20.7104 15.2264 22.3849 16.9008C24.0593 18.5753 25 20.8463 25 23.2143C25 25.5823 24.0593 27.8533 22.3849 29.5277C20.7104 31.2022 18.4394 32.1429 16.0714 32.1429Z" fill="url(#paint1_linear_8_43)"/>
<defs>
<linearGradient id="paint0_linear_8_43" x1="18.2674" y1="15.8107" x2="50.917" y2="15.8107" gradientUnits="userSpaceOnUse">
<stop stop-color="#FF00C1"/>
<stop offset="1" stop-color="#00FFF9"/>
</linearGradient>
<linearGradient id="paint1_linear_8_43" x1="3.25772" y1="30.3583" x2="29.971" y2="30.3584" gradientUnits="userSpaceOnUse">
<stop stop-color="#FF00C1"/>
<stop offset="1" stop-color="#00FFF9"/>
</linearGradient>
</defs>
</svg>
