<svg preserveAspectRatio="xMidYMid meet" viewBox="0 0 40 54" fill="none" xmlns="http://www.w3.org/2000/svg">
<path d="M19.8595 41.2843V28.7834M19.8595 28.7834C21.0643 28.7844 22.2643 28.6331 23.4312 28.3334M19.8595 28.7834C18.6548 28.7844 17.4547 28.6331 16.2879 28.3334M25.217 46.1394C21.677 46.8116 18.0421 46.8116 14.502 46.1394M23.4312 51.8135C21.0566 52.0622 18.6625 52.0622 16.2879 51.8135M25.217 41.2843V40.8271C25.217 38.4865 26.7838 36.4863 28.8078 35.3124C32.208 33.3434 34.8639 30.3079 36.364 26.6762C37.8641 23.0446 38.1246 19.0197 37.1052 15.225C36.0857 11.4303 33.8432 8.07776 30.7252 5.68681C27.6071 3.29587 23.7876 2 19.8584 2C15.9291 2 12.1096 3.29587 8.99152 5.68681C5.87347 8.07776 3.63099 11.4303 2.61154 15.225C1.5921 19.0197 1.8526 23.0446 3.35269 26.6762C4.85278 30.3079 7.5087 33.3434 10.9089 35.3124C12.9329 36.4863 14.502 38.4865 14.502 40.8271V41.2843" stroke="url(#paint0_linear_8_36)" stroke-width="3" stroke-linecap="round" stroke-linejoin="round"/>
<defs>
<linearGradient id="paint0_linear_8_36" x1="5.61994" y1="27" x2="35.3034" y2="27" gradientUnits="userSpaceOnUse">
<stop stop-color="#FF00C1"/>
<stop offset="1" stop-color="#00FFF9"/>
</linearGradient>
</defs>
</svg>
