<svg preserveAspectRatio="xMidYMid meet" viewBox="0 0 50 50" fill="none" xmlns="http://www.w3.org/2000/svg">
<path d="M25 0C11.2017 0 0 11.2017 0 25C0 38.7983 11.2017 50 25 50C38.7983 50 50 38.7983 50 25C50 11.2017 38.7983 0 25 0ZM21.3841 2.21352C17.9185 4.70494 15.0858 7.43026 12.897 10.3004H7.21674C10.7189 6.06652 15.7082 3.10622 21.3841 2.21352ZM28.6159 2.21352C34.2918 3.10622 39.2811 6.06652 42.779 10.3004H37.103C34.9142 7.43026 32.0815 4.70494 28.6159 2.21352ZM22.1567 4.03541C21.03 6.16094 20.0644 8.24571 19.2597 10.3004H15.3648C17.1996 8.11266 19.4635 6.00858 22.1567 4.03541ZM27.8433 4.03541C30.5365 6.00858 32.8004 8.11266 34.6352 10.3004H30.7403C29.9356 8.24571 28.97 6.16094 27.8433 4.03541ZM24.0343 4.61266V10.3004H21.3412C22.0923 8.44421 22.9936 6.55043 24.0343 4.61266ZM25.9657 4.61266C27.0064 6.55043 27.9077 8.44421 28.6588 10.3004H25.9657V4.61266ZM5.78219 12.2318H11.5236C10.4721 13.8412 9.61373 15.4936 8.95923 17.1674H3.29506C3.92704 15.4185 4.76609 13.7554 5.78219 12.2318ZM13.8519 12.2318H18.5515C17.9721 13.8949 17.5215 15.5365 17.1674 17.1674H11.0408C11.7597 15.4936 12.7039 13.8519 13.8519 12.2318ZM20.5901 12.2318H24.0343V17.1674H19.1416C19.5064 15.5365 19.9893 13.8949 20.5901 12.2318ZM25.9657 12.2318H29.4099C30.0107 13.8949 30.4936 15.5365 30.8584 17.1674H25.9657V12.2318ZM31.4485 12.2318H36.1481C37.2961 13.8519 38.2403 15.4936 38.9592 17.1674H32.8326C32.4785 15.5365 32.0279 13.8949 31.4485 12.2318ZM38.4764 12.2318H44.2167C45.2361 13.7554 46.073 15.4185 46.706 17.1674H41.0408C40.3863 15.4936 39.5279 13.8412 38.4764 12.2318ZM2.69313 19.0987H8.28326C7.78648 20.7296 7.47854 22.382 7.35622 24.0343H1.95279C2.02253 22.3391 2.27575 20.6867 2.69313 19.0987ZM10.3004 19.0987H16.7918C16.5236 20.7511 16.3734 22.3927 16.3197 24.0343H9.29185C9.4206 22.3927 9.76395 20.7403 10.3004 19.0987ZM18.7554 19.0987H24.0343V24.0343H18.2511C18.3047 22.3927 18.4657 20.7511 18.7554 19.0987ZM25.9657 19.0987H31.2446C31.5343 20.7511 31.6953 22.3927 31.7489 24.0343H25.9657V19.0987ZM33.2082 19.0987H39.6996C40.2361 20.7403 40.5794 22.3927 40.7082 24.0343H33.6803C33.6266 22.3927 33.4764 20.7511 33.2082 19.0987ZM41.7167 19.0987H47.3069C47.7253 20.6867 47.9721 22.3391 48.0472 24.0343H42.6395C42.5215 22.382 42.2103 20.7296 41.7167 19.0987ZM1.95279 25.9657H7.29936C7.32403 27.6288 7.5397 29.2811 7.94528 30.9013H2.69313C2.27575 29.3133 2.02253 27.6609 1.95279 25.9657ZM9.22747 25.9657H16.3197C16.3734 27.6073 16.5236 29.2489 16.7918 30.9013H9.93562C9.49571 29.2704 9.25966 27.618 9.22747 25.9657ZM18.2511 25.9657H24.0343V30.9013H18.7554C18.4657 29.2489 18.3047 27.6073 18.2511 25.9657ZM25.9657 25.9657H31.7489C31.6953 27.6073 31.5343 29.2489 31.2446 30.9013H25.9657V25.9657ZM33.6803 25.9657H40.7725C40.7403 27.618 40.5043 29.2704 40.0644 30.9013H33.2082C33.4764 29.2489 33.6266 27.6073 33.6803 25.9657ZM42.7039 25.9657H48.0472C47.9721 27.6609 47.7253 29.3133 47.3069 30.9013H42.0601C42.4571 29.2811 42.6717 27.6288 42.7039 25.9657ZM3.29506 32.8326H8.51931C9.09871 34.5172 9.8927 36.1695 10.8906 37.7682H5.78219C4.76609 36.2446 3.92704 34.5815 3.29506 32.8326ZM10.5579 32.8326H17.1674C17.5215 34.4635 17.9721 36.1052 18.5515 37.7682H13.1867C12.0708 36.1695 11.2017 34.5172 10.5579 32.8326ZM19.1416 32.8326H24.0343V37.7682H20.5901C19.9893 36.1052 19.5064 34.4635 19.1416 32.8326ZM25.9657 32.8326H30.8584C30.4936 34.4635 30.0107 36.1052 29.4099 37.7682H25.9657V32.8326ZM32.8326 32.8326H39.4421C38.7983 34.5172 37.9292 36.1695 36.8133 37.7682H31.4485C32.0279 36.1052 32.4785 34.4635 32.8326 32.8326ZM41.4807 32.8326H46.706C46.073 34.5815 45.2361 36.2446 44.2167 37.7682H39.1094C40.1073 36.1695 40.9013 34.5172 41.4807 32.8326ZM7.21674 39.6996H12.221C14.3991 42.6073 17.2961 45.3112 20.9013 47.7039C15.4292 46.7275 10.6223 43.809 7.21674 39.6996ZM14.6567 39.6996H19.2597C20.1073 41.8884 21.1481 44.0987 22.3712 46.3627C19.2275 44.3348 16.6631 42.0923 14.6567 39.6996ZM21.3412 39.6996H24.0343V45.3863C22.9936 43.4549 22.0923 41.5558 21.3412 39.6996ZM25.9657 39.6996H28.6588C27.9077 41.5558 27.0064 43.4549 25.9657 45.3863V39.6996ZM30.7403 39.6996H35.3433C33.3369 42.0923 30.7725 44.3348 27.6288 46.3627C28.8519 44.0987 29.8927 41.8884 30.7403 39.6996ZM37.779 39.6996H42.779C39.3777 43.809 34.5708 46.7275 29.0987 47.7039C32.7039 45.3112 35.6009 42.6073 37.779 39.6996Z" fill="url(#paint0_linear_8_41)"/>
<defs>
<linearGradient id="paint0_linear_8_41" x1="5.06757" y1="25" x2="46.6216" y2="25" gradientUnits="userSpaceOnUse">
<stop stop-color="#FF00C1"/>
<stop offset="1" stop-color="#00FFF9"/>
</linearGradient>
</defs>
</svg>
