<svg preserveAspectRatio="xMidYMid meet" viewBox="0 0 55 50" fill="none" xmlns="http://www.w3.org/2000/svg">
<path d="M20 32.5C19.5055 32.5 19.0222 32.6466 18.6111 32.9213C18.2 33.196 17.8795 33.5865 17.6903 34.0433C17.5011 34.5001 17.4516 35.0028 17.548 35.4877C17.6445 35.9727 17.8826 36.4181 18.2322 36.7678C18.5819 37.1174 19.0273 37.3555 19.5123 37.452C19.9972 37.5484 20.4999 37.4989 20.9567 37.3097C21.4135 37.1205 21.804 36.8 22.0787 36.3889C22.3534 35.9778 22.5 35.4945 22.5 35C22.5 34.337 22.2366 33.7011 21.7678 33.2322C21.2989 32.7634 20.663 32.5 20 32.5ZM2.5 30C1.83696 30 1.20107 30.2634 0.732233 30.7322C0.263392 31.2011 0 31.837 0 32.5V37.5C0 38.163 0.263392 38.7989 0.732233 39.2678C1.20107 39.7366 1.83696 40 2.5 40C3.16304 40 3.79893 39.7366 4.26777 39.2678C4.73661 38.7989 5 38.163 5 37.5V32.5C5 31.837 4.73661 31.2011 4.26777 30.7322C3.79893 30.2634 3.16304 30 2.5 30ZM52.5 30C51.837 30 51.2011 30.2634 50.7322 30.7322C50.2634 31.2011 50 31.837 50 32.5V37.5C50 38.163 50.2634 38.7989 50.7322 39.2678C51.2011 39.7366 51.837 40 52.5 40C53.163 40 53.7989 39.7366 54.2678 39.2678C54.7366 38.7989 55 38.163 55 37.5V32.5C55 31.837 54.7366 31.2011 54.2678 30.7322C53.7989 30.2634 53.163 30 52.5 30ZM40 12.5H30V9.3C30.7557 8.86372 31.384 8.23728 31.8226 7.48292C32.2612 6.72857 32.4947 5.87257 32.5 5C32.5 3.67392 31.9732 2.40215 31.0355 1.46447C30.0979 0.526784 28.8261 0 27.5 0C26.1739 0 24.9021 0.526784 23.9645 1.46447C23.0268 2.40215 22.5 3.67392 22.5 5C22.5053 5.87257 22.7388 6.72857 23.1774 7.48292C23.616 8.23728 24.2443 8.86372 25 9.3V12.5H15C13.0109 12.5 11.1032 13.2902 9.6967 14.6967C8.29018 16.1032 7.5 18.0109 7.5 20V42.5C7.5 44.4891 8.29018 46.3968 9.6967 47.8033C11.1032 49.2098 13.0109 50 15 50H40C41.9891 50 43.8968 49.2098 45.3033 47.8033C46.7098 46.3968 47.5 44.4891 47.5 42.5V20C47.5 18.0109 46.7098 16.1032 45.3033 14.6967C43.8968 13.2902 41.9891 12.5 40 12.5ZM31.8 17.5L30.55 22.5H24.45L23.2 17.5H31.8ZM42.5 42.5C42.5 43.163 42.2366 43.7989 41.7678 44.2678C41.2989 44.7366 40.663 45 40 45H15C14.337 45 13.7011 44.7366 13.2322 44.2678C12.7634 43.7989 12.5 43.163 12.5 42.5V20C12.5 19.337 12.7634 18.7011 13.2322 18.2322C13.7011 17.7634 14.337 17.5 15 17.5H18.05L20 25.6C20.1369 26.1547 20.4596 26.6458 20.9145 26.9915C21.3694 27.3372 21.9289 27.5166 22.5 27.5H32.5C33.0711 27.5166 33.6306 27.3372 34.0855 26.9915C34.5404 26.6458 34.8631 26.1547 35 25.6L36.95 17.5H40C40.663 17.5 41.2989 17.7634 41.7678 18.2322C42.2366 18.7011 42.5 19.337 42.5 20V42.5ZM35 32.5C34.5055 32.5 34.0222 32.6466 33.6111 32.9213C33.2 33.196 32.8795 33.5865 32.6903 34.0433C32.5011 34.5001 32.4516 35.0028 32.548 35.4877C32.6445 35.9727 32.8826 36.4181 33.2322 36.7678C33.5819 37.1174 34.0273 37.3555 34.5123 37.452C34.9972 37.5484 35.4999 37.4989 35.9567 37.3097C36.4135 37.1205 36.804 36.8 37.0787 36.3889C37.3534 35.9778 37.5 35.4945 37.5 35C37.5 34.337 37.2366 33.7011 36.7678 33.2322C36.2989 32.7634 35.663 32.5 35 32.5Z" fill="url(#paint0_linear_8_30)"/>
<defs>
<linearGradient id="paint0_linear_8_30" x1="5.57432" y1="25" x2="51.2838" y2="25" gradientUnits="userSpaceOnUse">
<stop stop-color="#FF00C1"/>
<stop offset="1" stop-color="#00FFF9"/>
</linearGradient>
</defs>
</svg>
