<svg preserveAspectRatio="xMidYMid meet" viewBox="0 0 50 50" fill="none" xmlns="http://www.w3.org/2000/svg">
<path d="M25 50C21.5417 50 18.2917 49.3433 15.25 48.03C12.2083 46.7167 9.5625 44.9358 7.3125 42.6875C5.0625 40.4375 3.28167 37.7917 1.97 34.75C0.658334 31.7083 0.00166667 28.4583 0 25C0 21.5417 0.656667 18.2917 1.97 15.25C3.28333 12.2083 5.06417 9.5625 7.3125 7.3125C9.5625 5.0625 12.2083 3.28167 15.25 1.97C18.2917 0.658334 21.5417 0.00166667 25 0C28.4583 0 31.7083 0.656667 34.75 1.97C37.7917 3.28333 40.4375 5.06417 42.6875 7.3125C44.9375 9.5625 46.7192 12.2083 48.0325 15.25C49.3458 18.2917 50.0017 21.5417 50 25C50 28.4583 49.3433 31.7083 48.03 34.75C46.7167 37.7917 44.9358 40.4375 42.6875 42.6875C40.4375 44.9375 37.7917 46.7192 34.75 48.0325C31.7083 49.3458 28.4583 50.0017 25 50ZM25 45C30.5833 45 35.3125 43.0625 39.1875 39.1875C43.0625 35.3125 45 30.5833 45 25C45 19.4167 43.0625 14.6875 39.1875 10.8125C35.3125 6.9375 30.5833 5 25 5C19.4167 5 14.6875 6.9375 10.8125 10.8125C6.9375 14.6875 5 19.4167 5 25C5 30.5833 6.9375 35.3125 10.8125 39.1875C14.6875 43.0625 19.4167 45 25 45ZM25 40C20.8333 40 17.2917 38.5417 14.375 35.625C11.4583 32.7083 10 29.1667 10 25C10 20.8333 11.4583 17.2917 14.375 14.375C17.2917 11.4583 20.8333 10 25 10C29.1667 10 32.7083 11.4583 35.625 14.375C38.5417 17.2917 40 20.8333 40 25C40 29.1667 38.5417 32.7083 35.625 35.625C32.7083 38.5417 29.1667 40 25 40ZM25 35C27.75 35 30.1042 34.0208 32.0625 32.0625C34.0208 30.1042 35 27.75 35 25C35 22.25 34.0208 19.8958 32.0625 17.9375C30.1042 15.9792 27.75 15 25 15C22.25 15 19.8958 15.9792 17.9375 17.9375C15.9792 19.8958 15 22.25 15 25C15 27.75 15.9792 30.1042 17.9375 32.0625C19.8958 34.0208 22.25 35 25 35ZM25 30C23.625 30 22.4483 29.5108 21.47 28.5325C20.4917 27.5542 20.0017 26.3767 20 25C20 23.625 20.49 22.4483 21.47 21.47C22.45 20.4917 23.6267 20.0017 25 20C26.375 20 27.5525 20.49 28.5325 21.47C29.5125 22.45 30.0017 23.6267 30 25C30 26.375 29.5108 27.5525 28.5325 28.5325C27.5542 29.5125 26.3767 30.0017 25 30Z" fill="url(#paint0_linear_8_26)"/>
<defs>
<linearGradient id="paint0_linear_8_26" x1="5.06757" y1="25" x2="46.6216" y2="25" gradientUnits="userSpaceOnUse">
<stop stop-color="#FF00C1"/>
<stop offset="1" stop-color="#00FFF9"/>
</linearGradient>
</defs>
</svg>
