<svg preserveAspectRatio="xMidYMid meet" viewBox="0 0 54 54" fill="none" xmlns="http://www.w3.org/2000/svg">
<path d="M38.9648 7.96591L43.4635 3.46464C44.4012 2.52685 45.6732 2 46.9994 2C48.3256 2 49.5976 2.52685 50.5354 3.46464C51.4732 4.40243 52 5.67435 52 7.00059C52 8.32683 51.4732 9.59875 50.5354 10.5365L22.2184 38.8535C20.8086 40.2625 19.0701 41.2981 17.1598 41.8668L9.99989 44.0001L12.1332 36.8402C12.7019 34.9299 13.7375 33.1914 15.1465 31.7816L38.9648 7.96591ZM38.9648 7.96591L45.9994 15.0005M41.9995 33.3336V46.0001C41.9995 47.5914 41.3673 49.1175 40.2421 50.2427C39.1169 51.3679 37.5908 52 35.9996 52H7.99992C6.40864 52 4.88254 51.3679 3.75734 50.2427C2.63213 49.1175 2 47.5914 2 46.0001V18.0004C2 16.4092 2.63213 14.8831 3.75734 13.7579C4.88254 12.6327 6.40864 12.0005 7.99992 12.0005H20.6664" stroke="url(#paint0_linear_8_28)" stroke-width="3" stroke-linecap="round" stroke-linejoin="round"/>
<defs>
<linearGradient id="paint0_linear_8_28" x1="7.06757" y1="27" x2="48.6216" y2="27" gradientUnits="userSpaceOnUse">
<stop stop-color="#FF00C1"/>
<stop offset="1" stop-color="#00FFF9"/>
</linearGradient>
</defs>
</svg>
